<svg xmlns="http://www.w3.org/2000/svg" viewBox="0 0 24 24">
  <path fill="#e5e7eb" d="M12 .5A11.5 11.5 0 0 0 8.36 22.9c.58.1.8-.26.8-.57v-2c-3.26.71-3.95-1.4-3.95-1.4-.53-1.35-1.3-1.7-1.3-1.7-1.06-.73.08-.72.08-.72 1.18.08 1.8 1.22 1.8 1.22 1.05 1.8 2.76 1.28 3.43.98.11-.77.41-1.28.75-1.57-2.6-.29-5.33-1.3-5.33-5.79 0-1.28.46-2.33 1.22-3.15-.12-.3-.53-1.53.12-3.19 0 0 1-.32 3.3 1.2a11.46 11.46 0 0 1 6 0c2.29-1.52 3.29-1.2 3.29-1.2.66 1.66.25 2.89.13 3.19.76.82 1.21 1.87 1.21 3.15 0 4.5-2.73 5.49-5.33 5.78.42.36.8 1.07.8 2.16v3.2c0 .31.21.68.81.57A11.5 11.5 0 0 0 12 .5Z"></path>
</svg>
